<svg width="172" height="41" viewBox="0 0 172 41" fill="none" xmlns="http://www.w3.org/2000/svg">
<path d="M172 28.6559V24.6882C172 18.0753 166.639 12.638 159.973 12.638H157.365C150.699 12.638 145.338 18.0753 145.338 24.6882V28.9498C145.338 35.5627 150.699 41 157.365 41H159.973C165.624 41 170.406 37.0323 171.71 31.7419H164.465C163.451 33.9462 161.277 35.5627 158.669 35.5627C155.191 35.5627 152.293 32.7706 152.293 29.2437V28.8029H172V28.6559ZM152.293 24.3943C152.293 20.8674 155.191 18.0753 158.669 18.0753C162.147 18.0753 165.045 20.8674 165.045 24.3943V25.5699H152.293V24.3943ZM12.1719 2.93907L0 40.2652H8.11457L20.7211 2.93907L33.3277 40.2652H41.4423L29.2704 2.93907H12.1719ZM20.5762 30.8602L7.96967 40.2652H33.0379L20.5762 30.8602ZM46.9486 40.2652H54.1938V0L46.9486 5.43728V40.2652ZM133.166 13.0789H125.921L133.166 7.64158V2.79211H125.921V12.9319H121.284V17.9283H125.921V31.448C125.921 33.9462 126.356 40.8531 134.905 40.8531C138.527 40.8531 140.991 39.6774 140.991 39.6774V34.3871C140.991 34.3871 139.107 35.2688 136.933 35.2688C134.76 35.2688 133.311 33.6523 133.311 30.8602V17.9283H141.136V12.9319L133.166 13.0789ZM74.77 12.491H72.1618C65.4962 12.491 60.1348 17.9283 60.1348 24.5412V28.8029C60.1348 35.4158 65.4962 40.8531 72.1618 40.8531H74.77C80.4212 40.8531 85.203 36.8853 86.5072 31.595H79.262C78.2477 33.7993 76.0741 35.4158 73.4659 35.4158C69.9882 35.4158 67.0901 32.6237 67.0901 29.0968V28.6559H86.797V24.6882C86.797 17.9283 81.4356 12.491 74.77 12.491ZM79.8416 25.5699H67.0901V24.3943C67.0901 20.8674 69.9882 18.0753 73.4659 18.0753C76.9436 18.0753 79.8416 20.8674 79.8416 24.3943V25.5699ZM108.677 12.638C104.62 12.638 101.142 14.5484 99.8382 19.5448V13.0789H92.5931V40.2652H99.8382V22.7778C100.418 21.1613 101.867 18.2222 105.489 18.2222C110.416 18.2222 110.851 22.3369 110.851 23.6595C110.851 23.6595 110.851 23.6595 110.851 23.8065V40.2652H118.096V22.9247C117.951 19.9857 116.792 12.638 108.677 12.638Z" fill="#162E68"/>
</svg>
